<?xml version="1.0" encoding="utf-8"?>
<!-- Generator: Adobe Illustrator 17.0.0, SVG Export Plug-In . SVG Version: 6.00 Build 0)  -->
<!DOCTYPE svg PUBLIC "-//W3C//DTD SVG 1.1//EN" "http://www.w3.org/Graphics/SVG/1.1/DTD/svg11.dtd">
<svg version="1.1" id="Layer_1" xmlns="http://www.w3.org/2000/svg" xmlns:xlink="http://www.w3.org/1999/xlink" x="0px" y="0px"
	 width="219.22px" height="199.488px" viewBox="0 0 219.22 199.488" enable-background="new 0 0 219.22 199.488"
	 xml:space="preserve">
<g>
	<path fill="#A8B676" d="M98.275,1.823c1.979-0.608,3.957-1.215,5.936-1.823c2.666,0,5.333,0,7.999,0
		c2.32,0.562,4.61,1.377,6.963,1.643c11.144,1.259,18.245,8.641,25.17,16.337c-7.346-0.254-14.384,0.332-19.187,7.024
		c-5.892-3.619-11.789-1.987-17.687-0.016c-0.6-0.817-1.201-1.634-1.894-2.577c-0.764,1.367-1.316,2.356-2.142,3.835
		c-1.069-2.352-1.866-4.105-2.832-6.232c-0.567,1.335-0.88,2.071-1.192,2.809c-0.741-1.178-1.483-2.359-2.224-3.54
		C97.549,13.464,97.912,7.643,98.275,1.823z"/>
	<path fill="#0B465A" d="M99.41,22.821c0.313-0.736,0.625-1.472,1.192-2.806c0.967,2.127,1.763,3.879,2.832,6.232
		c0.826-1.479,1.378-2.467,2.142-3.835c0.693,0.944,1.294,1.76,1.894,2.577c0.099,0.315,0.174,0.64,0.302,0.943
		c3.054,7.225,9.572,5.924,15.425,6.262c2.663,1.93,5.326,3.861,7.989,5.791c0.131,0.355,0.262,0.709,0.393,1.064
		c0.157,3.963,0.315,7.925,0.472,11.888c-0.496,0.431-0.987,0.866-1.487,1.292c-2.04,1.737-3.633,4.468-6.813,0.915
		c-0.937-1.047-4.137-0.069-6.3-0.018c0.31,2.011,0.285,4.152,1.002,6.006c1.323,3.42,3.081,6.673,4.657,9.995
		c0.272,3.618,0.543,7.236,0.815,10.854c-1.21,7.282-1.164,15.1-3.982,21.695c-2.809,6.573-3.924,12.632-2.652,19.405
		c0.64,9.312,1.815,18.625,1.785,27.934c-0.038,11.841-3.007,23.088-9.882,33.019c-0.456,0.659-0.967,1.289-1.523,1.865
		c-0.196,0.204-0.603,0.205-1.631,0.516c1.612-4.793,3.092-9.193,4.572-13.593c-4.198,8.366-9.293,16.026-16.588,21.647
		c-7.38,5.686-15.838,8.726-25.957,4.889c15.951-0.448,23.929-8.473,32.946-29.545c-2,0.83-3.65,1.514-6.056,2.513
		c5.534-16.264,10.192-31.928,9.04-48.609c-0.927-3.26-1.855-6.522-2.783-9.783c-1.001-1.293-2.003-2.585-3.004-3.878
		c-1.278-0.699-2.555-1.398-3.834-2.097c-0.749-1.934-1.497-3.868-2.244-5.802c-0.614-1.396-1.228-2.792-1.841-4.188
		c-0.366-0.999-0.732-1.998-1.097-2.997c-0.772-1.617-1.545-3.234-2.317-4.85c-4.448-11.937-4.194-23.434,3.64-33.987
		c2.652-3.573,5.871-6.726,8.83-10.07c2.656-2.403,5.312-4.807,8.263-7.477C101.981,33.326,99.985,28.467,99.41,22.821z"/>
	<path fill="#E9571C" d="M99.344,44.062c-2.96,3.345-6.178,6.498-8.83,10.07c-7.835,10.554-8.088,22.05-3.641,33.987
		c-0.548,0.564-1.095,1.128-1.643,1.692c-2.214,0.618-4.401,1.37-6.647,1.831c-9.185,1.884-16.088-3.01-16.583-11.668
		c0.409-2.241,1.234-4.498,1.142-6.718c-0.211-5.066-3.664-7.208-9.508-6.218c-1.565,0.265-3.092,0.758-5.047,1.25
		c-1.163-8.421-0.413-16.207,1.669-23.959c1.173-4.368,3.926-1.084,5.912-1.467c2.019,0.375,4.038,0.75,6.057,1.125
		c0.137,0.155,0.274,0.31,0.41,0.465c-0.016-0.097,0.002-0.234-0.055-0.283c-0.098-0.085-0.243-0.115-0.369-0.169
		c-0.317-4.088,2.717-5.255,5.67-5.584c5.131-0.571,8.567,2.37,10.405,5.8c1.965-1.403,3.942-2.814,5.918-4.224
		C90.071,38.292,94.981,40.159,99.344,44.062z"/>
	<path fill="#EB6A1E" d="M99.344,44.062c-4.363-3.903-9.273-5.77-15.141-4.071c-1.184-0.363-2.4-0.648-3.548-1.104
		c-4.028-1.598-8.233-2.912-11.94-5.073c-1.308-0.763-2.404-4.178-1.758-5.436c0.842-1.638,3.448-3.106,5.417-3.282
		c4.905-0.439,9.88-0.105,14.826-0.081c0.385,0.255,0.769,0.51,1.154,0.765c0.09-0.17,0.18-0.339,0.27-0.509
		c-0.465-0.097-0.929-0.194-1.394-0.291c-6.743-2.402-13.485-4.804-20.228-7.206c1.016-0.968,2.032-1.937,3.05-2.906
		c2.802,1.027,5.604,2.054,8.405,3.082c0.148-0.256,0.296-0.511,0.445-0.767c-1.724-1.812-3.449-3.624-5.173-5.436
		c0.494-0.311,0.988-0.621,1.481-0.931c2.632,1.434,5.266,2.867,7.902,4.297c0.19,0.136,0.379,0.274,0.567,0.412
		c-0.127-0.199-0.255-0.399-0.382-0.598c-1.049-2.326-2.099-4.652-3.148-6.978c0.691-0.324,1.382-0.649,2.072-0.973
		c4.224,5.031,5.218,13.991,14.964,12.308c0.742,1.181,1.483,2.362,2.224,3.54c0.575,5.643,2.571,10.502,8.196,13.761
		C104.655,39.255,101.999,41.659,99.344,44.062z"/>
	<path fill="#FAC938" d="M61.999,79.974c0.495,8.658,7.399,13.552,16.583,11.668c2.246-0.461,4.433-1.213,6.647-1.83
		c-3.899,6.792-7.798,13.582-11.697,20.372c-4.411-4.196-9.145-8.107-13.146-12.663c-4.379-4.987-4.299-8.382-0.941-14.032
		C60.182,82.25,61.142,81.143,61.999,79.974z"/>
	<path fill="#E9571C" d="M155.258,40.956c1.884,0.448,3.859,0.668,5.635,1.382c7.857,3.161,9.694,8.152,3.247,13.301
		c-0.446,0.357-0.659,1.005-1.4,2.187c7.243-1.097,6.894,3.251,6.296,7.576c-0.45,3.254-1.202,6.467-1.82,9.697
		c-1.024-0.362-2.048-0.722-3.071-1.083c0.921-2.108,3.168-5.203,2.487-6.119c-1.426-1.916-4.279-3.208-6.767-3.761
		c-2.047-0.455-4.414,0.527-6.639,0.872c-0.172-1.024-0.552-2.063-0.482-3.07c0.397-5.709,0.901-11.41,1.369-17.112
		c0.359-1.266,0.718-2.533,1.076-3.8L155.258,40.956z"/>
	<path fill="#FCC535" d="M87.2,25.015c-4.947-0.024-9.921-0.358-14.826,0.081c-1.969,0.176-4.575,1.644-5.417,3.282
		c-0.647,1.258,0.449,4.674,1.758,5.436c3.707,2.161,7.911,3.475,11.94,5.073c1.148,0.455,2.363,0.74,3.548,1.104
		c-1.977,1.411-3.953,2.822-5.918,4.224c-1.837-3.43-5.274-6.37-10.405-5.8c-2.952,0.328-5.987,1.496-5.67,5.584l0.013-0.013
		c-2.019-0.375-4.038-0.75-6.057-1.125c2.017-5.949,3.828-11.979,6.144-17.808c1.045-2.631,3.096-4.863,4.691-7.278
		c6.744,2.4,13.486,4.802,20.229,7.204L87.2,25.015z"/>
	<path fill="#57A690" d="M131.185,37.984c-2.663-1.93-5.326-3.861-7.99-5.792c4.16-1.439,3.53-4.185,1.962-7.188
		c4.802-6.692,11.841-7.278,19.187-7.024c0.627,0.624,1.253,1.248,1.879,1.871c0.354,1.019,0.708,2.038,1.062,3.057
		c-3.083,3.536-5.988,7.253-9.319,10.538C136.065,35.323,133.469,36.495,131.185,37.984z"/>
	<path fill="#194F63" d="M22.876,198.324c0-0.988,0-1.976,0-2.964c0-6.963,0-13.926,0-20.846c3.727-0.901,3.727-0.901,4.334,8.299
		c1.233-0.367,2.374-0.835,3.561-1.037c4.415-0.75,7.049,1.299,7.445,5.728c0.074,0.824,0.027,1.659,0.028,2.489
		c0.002,2.802,0.001,5.604,0.001,8.699c-1.447,0-2.632,0-4.182,0c0-3.487,0.294-6.817-0.143-10.048
		c-0.178-1.319-1.941-2.423-2.983-3.625c-1.318,1.181-3.385,2.155-3.783,3.591c-0.642,2.314,0.088,4.977-0.301,7.406
		c-0.201,1.253-1.566,2.32-2.405,3.471C23.924,199.1,23.4,198.712,22.876,198.324z"/>
	<path fill="#134B5F" d="M155.32,199.392c-2.184-0.574-3.992-0.491-4.778-1.347c-4.699-5.117-4.62-5.189-10.696-4.874
		c-3.079,5.59-3.079,5.59-6.958,5.536c2.814-7.17,5.482-14.179,8.379-21.091c0.379-0.904,1.977-1.859,2.942-1.794
		c0.93,0.063,2.177,1.25,2.588,2.234C149.599,184.769,152.218,191.559,155.32,199.392z M144.056,180.411
		c-1.391,3.777-2.306,6.261-3.328,9.034c2.543,0,4.363,0,6.644,0C146.326,186.596,145.451,184.211,144.056,180.411z"/>
	<path fill="#1F5366" d="M45.941,191.672c3.995,0,7.262,0,10.466,0c0.77-6.066-0.948-9.208-5.146-9.931
		c-4.716-0.812-8.45,1.929-9.252,6.792c-0.957,5.804,1.349,9.906,6.29,10.541c2.95,0.379,6.343,1.09,8.164-2.373
		C52.644,195.659,47.919,197.885,45.941,191.672z M50.224,184c2,1,5,3,4,5c-2,1-6,1-8,0C45.224,187,46.224,183,50.224,184z"/>
	<path fill="#197E38" d="M117.289,121.08c-1.272-6.773-0.157-12.831,2.652-19.405c2.818-6.594,2.773-14.413,3.982-21.695
		c0.428,1.355,0.857,2.711,1.285,4.066c-0.012,1.713-0.024,3.426-0.036,5.14c0.056,1.222,0.113,2.445,0.169,3.667
		c-0.091,5.032-0.183,10.065-0.274,15.097c-0.582,3.035-1.164,6.07-1.747,9.104C122.904,120.783,120.053,120.866,117.289,121.08z"/>
	<path fill="#FAC938" d="M97.186,19.284c-9.747,1.683-10.74-7.277-14.964-12.308c5.351-1.718,10.701-3.435,16.053-5.153
		C97.912,7.643,97.549,13.464,97.186,19.284z"/>
	<path fill="#1D5265" d="M219.22,198.037c-1.499,0.426-3.239,1.54-4.444,1.12c-1.914-0.667-3.887-2.067-5.036-3.715
		c-0.796-1.14-0.256-3.218-0.297-4.877c-0.029-1.163,0.44-2.969-0.124-3.384c-3.4-2.499-3.171-4.589,0.069-6.972
		c0.958-0.704,1.505-1.967,2.24-2.974c0.906,1.263,1.812,2.527,3.261,4.547c0.315,0.039,1.738,0.217,4.056,0.507
		c-0.726,1.232-1.229,2.881-1.779,2.896c-6.105,0.176-3.359,4.818-3.351,7.389c0.005,1.495,2.524,2.981,3.911,4.471
		C218.225,197.376,218.723,197.706,219.22,198.037z"/>
	<path fill="#1D5265" d="M169.646,182.364c1.06-0.542,2.317-0.883,3.129-1.679c0.966-0.946,1.549-2.283,2.298-3.45
		c0.904,1.261,1.809,2.521,3.26,4.545c0.306,0.038,1.724,0.217,4.029,0.506c-0.699,1.221-1.196,2.885-1.729,2.896
		c-6.117,0.13-3.39,4.782-3.38,7.349c0.006,1.512,2.481,3.015,4.603,5.357c-0.333,0.182-1.438,1.228-2.639,1.353
		c-2.788,0.292-5.518-0.271-6.108-3.629c-0.369-2.098-0.431-4.329-0.163-6.441c0.343-2.706-0.956-3.855-3.235-4.479
		C169.691,183.916,169.669,183.14,169.646,182.364z"/>
	<path fill="#FAC938" d="M164.144,74.016c1.024,0.361,2.048,0.721,3.072,1.083c-0.82,2.95-1.64,5.899-2.729,9.813
		c-2.476-1.913-4.176-3.226-6.34-4.898c0.951,6.591,4.65,13.045-1.989,18.138c-1.023-1.015-2.046-2.029-3.068-3.044
		c7.414-8.077,3.495-17.387,2.441-26.299C158.601,70.664,161.372,72.34,164.144,74.016z"/>
	<path fill="#0F6B35" d="M142.348,111.141c-0.403,0.277-0.805,0.553-1.208,0.83c-1.558-4.321-3.116-8.641-4.915-13.632
		c0.383,5.703,0.722,10.749,1.061,15.795c-0.637,0.405-1.275,0.811-1.911,1.215c-0.35-1.553-0.792-3.092-1.036-4.661
		c-0.748-4.826-1.419-9.665-2.12-14.5c0.001-2.625,0.001-5.248,0.002-7.871c0.372-0.756,0.744-1.513,1.116-2.269
		c1.226,0.716,2.453,1.433,3.679,2.149c0.814,3.125,1.627,6.249,2.441,9.374C140.42,102.095,141.384,106.618,142.348,111.141z"/>
	<path fill="#B4B36B" d="M139.457,97.572c-0.814-3.125-1.627-6.249-2.44-9.374c1.369,0.197,2.738,0.394,4.107,0.591
		c3.988,2.106,7.977,4.213,11.965,6.319c1.023,1.014,2.047,2.028,3.069,3.043c-0.832,0.924-1.663,1.846-2.495,2.768
		C148.927,99.804,144.192,98.688,139.457,97.572z"/>
	<path fill="#0B465A" d="M11.368,178.976c0,6.866,0,13.126,0,19.683c-1.46,0-2.637,0-4.066,0c0-6.451,0-12.716,0-19.466
		c-1.794-0.08-3.406,0.025-4.931-0.289c-0.864-0.178-1.586-1.044-2.371-1.599c0.832-0.534,1.649-1.499,2.499-1.529
		c4.473-0.156,8.958-0.175,13.429-0.001c1.004,0.039,1.971,1.042,2.955,1.602c-0.992,0.533-1.932,1.311-2.99,1.536
		C14.629,179.182,13.266,178.976,11.368,178.976z"/>
	<path fill="#134B5F" d="M193.363,196.205c2.56-0.323,5.12-0.645,8.735-1.101c-3.411-4.332-11.508-3.22-8.694-10.105
		c0.695-1.7,4.095-2.688,6.425-3.182c1.443-0.306,3.214,0.935,4.838,1.481c-0.162,0.49-0.324,0.981-0.485,1.471
		c-2.509,0.301-5.017,0.602-8.329,0.999c3.053,4.281,11.504,2.974,8.285,9.969c-0.875,1.902-4.694,2.731-7.327,3.419
		c-1.22,0.319-2.837-0.88-4.274-1.391C192.813,197.245,193.088,196.725,193.363,196.205z"/>
	<path fill="#629733" d="M89.19,92.97c0.366,0.999,0.732,1.998,1.097,2.997c-1.38,7.054-2.761,14.107-4.141,21.161
		c-2.738-1.29-5.476-2.581-8.215-3.871c2.758-5.219,5.483-10.455,8.293-15.645C87.097,96.001,88.195,94.514,89.19,92.97z"/>
	<path fill="#278133" d="M89.19,92.97c-0.995,1.544-2.094,3.031-2.965,4.641c-2.81,5.191-5.535,10.427-8.293,15.645
		c-1.466-1.024-2.933-2.049-4.4-3.073c3.899-6.789,7.798-13.58,11.697-20.371c0.548-0.565,1.095-1.129,1.643-1.693
		C87.645,89.736,88.418,91.353,89.19,92.97z"/>
	<path fill="#1F5366" d="M169.209,182.364c0.022,0.776,0.044,1.552,0.067,2.329c-10.294,0.627-5.414,8.909-7.081,14.109
		c-1.058,0-2.176,0-3.523,0c0-5.559,0-10.985,0-16.438C162.251,182.364,165.73,182.364,169.209,182.364z"/>
	<path fill="#2AA19C" d="M139.457,97.572c4.735,1.116,9.47,2.232,14.206,3.347c-3.771,3.407-7.543,6.815-11.315,10.222
		C141.384,106.618,140.42,102.095,139.457,97.572z"/>
	<path fill="#1F5366" d="M185.12,182.196c3.939,0.202,3.951,0.202,3.832,12.291c-0.023,2.328,0.839,5.512-3.832,4.185
		C185.12,193.323,185.12,187.917,185.12,182.196z"/>
	<path fill="#49A47C" d="M123.321,117.054c0.582-3.035,1.164-6.07,1.748-9.104c1.83,0.329,3.658,0.659,5.487,0.988
		c0.2,2.7,0.399,5.4,0.599,8.099C128.55,119.844,125.934,117.896,123.321,117.054z"/>
	<path fill="#1E9D98" d="M147.286,22.909c-0.354-1.019-0.708-2.038-1.062-3.057c8.07,3.878,11.511,11.916,9.034,21.104
		c0,0-0.069,0.07-0.069,0.07c-0.283-0.062-0.569-0.104-0.858-0.128C151.983,34.901,149.634,28.905,147.286,22.909z"/>
	<path fill="#8BBD27" d="M131.155,117.037c-0.2-2.7-0.399-5.4-0.601-8.099c-0.156-3.993-0.31-7.986-0.463-11.979
		c0.709-0.256,1.419-0.512,2.128-0.769c0.701,4.834,1.372,9.672,2.12,14.498c0.243,1.569,0.685,3.108,1.036,4.661
		C133.967,115.913,132.561,116.475,131.155,117.037z"/>
	<path fill="#087B30" d="M94.374,105.957c1.278,0.699,2.555,1.398,3.833,2.096c-1.336,3.592-2.671,7.184-4.007,10.777
		c-1.339-0.015-2.678-0.03-4.017-0.045C91.581,114.509,92.978,110.233,94.374,105.957z"/>
	<path fill="#087B30" d="M86.147,117.128c1.38-7.054,2.76-14.107,4.141-21.161c0.614,1.396,1.228,2.792,1.842,4.187
		c-1.307,5.925-2.614,11.851-3.922,17.778C87.521,117.664,86.834,117.396,86.147,117.128z"/>
	<path fill="#629733" d="M88.208,117.932c1.307-5.926,2.615-11.852,3.922-17.778c0.747,1.935,1.495,3.869,2.244,5.803
		c-1.396,4.276-2.792,8.552-4.189,12.828C89.525,118.5,88.866,118.216,88.208,117.932z"/>
	<path fill="#A4B51C" d="M101.212,111.932c0.928,3.262,1.856,6.523,2.783,9.783c-2.303-0.388-4.606-0.775-6.911-1.162
		C98.458,117.679,99.835,114.805,101.212,111.932z"/>
	<path fill="#278133" d="M101.212,111.932c-1.377,2.873-2.753,5.747-4.128,8.621c-0.96-0.574-1.921-1.148-2.883-1.723
		c1.335-3.592,2.671-7.185,4.007-10.777C99.209,109.347,100.21,110.639,101.212,111.932z"/>
	<path fill="#197E38" d="M137.286,114.135c-0.339-5.046-0.678-10.092-1.061-15.795c1.8,4.991,3.358,9.311,4.915,13.632
		C139.855,112.693,138.57,113.414,137.286,114.135z"/>
	<path fill="#FCC535" d="M80.149,7.949c1.049,2.326,2.099,4.652,3.148,6.978l-0.187,0.188c-2.634-1.433-5.268-2.866-7.9-4.299
		C76.857,9.86,78.503,8.904,80.149,7.949z"/>
	<path fill="#FAC938" d="M73.728,11.747c1.724,1.812,3.449,3.624,5.173,5.436c-0.148,0.256-0.296,0.511-0.445,0.767
		c-2.801-1.027-5.602-2.055-8.405-3.082C71.276,13.828,72.502,12.787,73.728,11.747z"/>
	<path fill="#B78A55" d="M125.157,25.004c1.568,3.003,2.198,5.749-1.962,7.188c-5.852-0.337-12.37,0.965-15.424-6.261
		c-0.128-0.303-0.203-0.628-0.302-0.943C113.368,23.018,119.265,21.385,125.157,25.004z"/>
	<path fill="#E96F20" d="M154.112,44.824c-0.468,5.704-0.972,11.405-1.369,17.113c-0.07,1.007,0.31,2.046,0.482,3.07
		c-0.474,0.808-0.948,1.617-1.487,2.538c-3.572-4.556-7.685-6.295-9.955-3.548c-2.427,2.938-4.866,1.983-7.525,1.939
		c-3.717,1.063-7.433,2.127-11.15,3.19c-1.577-3.322-3.334-6.575-4.657-9.995c-0.717-1.854-0.692-3.995-1.002-6.006
		c2.163-0.05,5.362-1.028,6.3,0.018c3.18,3.553,4.774,0.822,6.813-0.915c0.5-0.426,0.992-0.861,1.489-1.293
		C141.264,55.606,147.967,51.223,154.112,44.824z"/>
	<path fill="#72AB8A" d="M147.286,22.909c2.349,5.996,4.697,11.993,7.045,17.99c-4.532,0.002-8.662,0.632-9.511,6.398
		c-4.752-7.072-6.471-8.125-13.242-8.248c-0.131-0.354-0.262-0.709-0.393-1.064c2.283-1.489,4.879-2.662,6.781-4.538
		C141.297,30.162,144.202,26.445,147.286,22.909z"/>
	<path fill="#8F9975" d="M131.578,39.048c6.77,0.123,8.489,1.176,13.242,8.248c0.849-5.766,4.979-6.396,9.511-6.398
		c0.29,0.023,0.576,0.065,0.859,0.127c-0.359,1.267-0.717,2.534-1.076,3.8c-6.146,6.397-12.849,10.781-22.062,6.11
		C131.892,46.973,131.735,43.011,131.578,39.048z"/>
	<path fill="#FCC535" d="M123.109,69.126c3.717-1.063,7.433-2.127,11.149-3.189c-0.615,1.123-1.347,2.197-1.824,3.375
		c-1.816,4.483-3.55,8.999-5.313,13.504c-0.637,0.412-1.274,0.821-1.912,1.231c-0.428-1.356-0.857-2.711-1.285-4.067
		C123.652,76.362,123.38,72.744,123.109,69.126z"/>
	<path fill="#FCC535" d="M62.21,44c0.125,0.053,0.27,0.084,0.369,0.169c0.057,0.05,0.039,0.186,0.055,0.283
		c-0.137-0.155-0.274-0.31-0.41-0.465C62.223,43.986,62.21,44,62.21,44z"/>
	<path fill="#FCC535" d="M87.23,24.98c0.465,0.097,0.929,0.194,1.394,0.291c-0.09,0.17-0.18,0.339-0.27,0.509
		c-0.384-0.255-0.769-0.51-1.154-0.765C87.2,25.015,87.23,24.98,87.23,24.98z"/>
	<path fill="#FCC535" d="M83.297,14.927c0.127,0.199,0.255,0.399,0.382,0.598c-0.188-0.138-0.377-0.276-0.567-0.412
		C83.11,15.115,83.297,14.927,83.297,14.927z"/>
	<path fill="#F5A32B" d="M127.12,82.813c1.764-4.503,3.498-9.019,5.314-13.502c0.477-1.178,1.209-2.252,1.824-3.375
		c2.659,0.043,5.098,0.998,7.525-1.94c2.269-2.747,6.383-1.008,9.955,3.548c0.54-0.921,1.013-1.73,1.487-2.538
		c2.225-0.345,4.592-1.326,6.639-0.871c2.488,0.553,5.341,1.845,6.767,3.761c0.681,0.916-1.566,4.011-2.487,6.119
		c-2.772-1.675-5.544-3.351-8.614-5.207c1.054,8.912,4.974,18.222-2.441,26.299c-3.99-2.106-7.978-4.212-11.966-6.317
		c1.03-2.597,2.06-5.196,3.09-7.795c0.119-0.051,0.258-0.08,0.352-0.161c0.058-0.05,0.047-0.179,0.067-0.273
		c-0.144,0.14-0.288,0.28-0.432,0.421c-4.308,0.726-8.616,1.452-12.924,2.178C129.891,83.045,128.505,82.929,127.12,82.813z"/>
	<path fill="#1E9D98" d="M130.09,96.959c0.154,3.993,0.307,7.986,0.463,11.979c-1.827-0.329-3.655-0.659-5.485-0.988
		c0.09-5.033,0.182-10.065,0.272-15.096C126.924,94.223,128.507,95.591,130.09,96.959z"/>
	<path fill="#659C7E" d="M130.09,96.959c-1.583-1.368-3.167-2.736-4.749-4.105c-0.055-1.224-0.112-2.446-0.168-3.669
		c2.349-0.289,4.699-0.578,7.048-0.866c-0.001,2.623-0.001,5.246-0.002,7.871C131.509,96.447,130.8,96.703,130.09,96.959z"/>
	<path fill="#E96F20" d="M132.221,88.318c-2.349,0.288-4.699,0.577-7.048,0.866c0.012-1.712,0.024-3.426,0.036-5.139
		c0.638-0.409,1.275-0.819,1.912-1.231c1.385,0.114,2.77,0.23,4.155,0.344c0.687,0.962,1.374,1.926,2.061,2.89
		C132.965,86.805,132.593,87.562,132.221,88.318z"/>
	<path fill="#E9571C" d="M133.337,86.049c-0.687-0.964-1.375-1.928-2.061-2.89c4.309-0.724,8.617-1.45,12.924-2.176l0.013,0.013
		c-1.03,2.599-2.06,5.197-3.09,7.794c-1.369-0.198-2.738-0.396-4.107-0.592C135.79,87.482,134.563,86.765,133.337,86.049z"/>
	<path fill="#E9571C" d="M144.2,80.983c0.144-0.14,0.288-0.28,0.432-0.421c-0.02,0.094-0.009,0.223-0.067,0.273
		c-0.094,0.081-0.232,0.11-0.352,0.161C144.213,80.996,144.2,80.983,144.2,80.983z"/>
</g>
<path fill="#1F5366" d="M172.412,184.928"/>
</svg>
